<svg width="252" height="36" viewBox="0 0 252 36" fill="none" xmlns="http://www.w3.org/2000/svg">
<path d="M13.104 18.288H22.752V21.696H13.104V31.776H9.6V21.696H0V18.288H9.6V8.304H13.104V18.288Z" fill="#171717"/>
<path d="M37.3871 18.288H47.0351V21.696H37.3871V31.776H33.8831V21.696H24.2831V18.288H33.8831V8.304H37.3871V18.288Z" fill="#171717"/>
<path d="M57.0143 35.088C52.5983 35.088 49.0462 32.4 49.0462 28.032C49.0462 23.568 52.5983 21.504 56.7262 20.832L61.6702 20.064C63.4463 19.776 64.0222 19.152 64.0222 17.76C64.0222 15.216 62.0542 13.728 59.3662 13.728C55.8142 13.728 53.9902 15.6 53.8942 18.48H49.7663C49.9103 14.256 53.2222 10.464 59.0303 10.464C64.7903 10.464 68.0543 13.872 68.0543 19.2V34.368H64.1182V31.248C62.9662 33.648 60.4703 35.088 57.0143 35.088ZM57.5903 31.872C61.2863 31.872 64.0222 29.376 64.0222 25.632V22.224C63.7342 22.656 62.8703 22.944 61.4783 23.232L58.1183 23.856C55.3823 24.384 53.3182 25.584 53.3182 28.032C53.3182 30.432 55.2383 31.872 57.5903 31.872Z" fill="#171717"/>
<path d="M82.1081 35.088C76.0601 35.088 71.4521 30.672 71.4521 22.8C71.4521 15.792 75.6281 10.464 82.2041 10.464C86.0441 10.464 88.5881 12.576 89.6441 14.352V0.767999H93.7721V34.368H89.6441V31.152C88.3961 33.312 85.5641 35.088 82.1081 35.088ZM82.8281 31.872C86.9561 31.872 89.9321 28.32 89.9321 22.752C89.9321 17.232 87.0041 13.728 82.8281 13.728C78.6521 13.728 75.7241 17.376 75.7241 22.8C75.7241 28.224 78.6041 31.872 82.8281 31.872Z" fill="#171717"/>
<path d="M108.126 35.088C102.078 35.088 97.4696 30.672 97.4696 22.8C97.4696 15.792 101.646 10.464 108.222 10.464C112.062 10.464 114.606 12.576 115.662 14.352V0.767999H119.79V34.368H115.662V31.152C114.414 33.312 111.582 35.088 108.126 35.088ZM108.846 31.872C112.974 31.872 115.95 28.32 115.95 22.752C115.95 17.232 113.022 13.728 108.846 13.728C104.67 13.728 101.742 17.376 101.742 22.8C101.742 28.224 104.622 31.872 108.846 31.872Z" fill="#171717"/>
<path d="M129.103 34.368H124.975V11.232H129.103V14.352C130.495 12.096 132.847 10.464 135.871 10.464C138.895 10.464 141.487 11.952 142.831 15.024C144.415 12.336 147.055 10.464 150.367 10.464C155.023 10.464 158.479 13.392 158.479 19.728V34.368H154.351V20.544C154.351 16.176 153.055 13.728 149.503 13.728C145.855 13.728 143.791 16.896 143.791 20.592V34.368H139.663V20.688C139.663 16.272 138.319 13.728 134.911 13.728C131.311 13.728 129.103 16.944 129.103 20.784V34.368Z" fill="#171717"/>
<path d="M173.256 35.088C166.584 35.088 161.88 30.144 161.88 22.752C161.88 15.552 166.584 10.464 173.256 10.464C179.88 10.464 184.632 15.552 184.632 22.752C184.632 30.144 179.88 35.088 173.256 35.088ZM173.256 31.872C177.672 31.872 180.36 28.176 180.36 22.752C180.36 17.328 177.576 13.728 173.256 13.728C168.936 13.728 166.152 17.328 166.152 22.752C166.152 28.176 168.84 31.872 173.256 31.872Z" fill="#171717"/>
<path d="M192.435 34.368H188.307V11.232H192.435V15.072C193.587 12.432 196.131 10.464 199.683 10.464C199.971 10.464 200.355 10.464 200.739 10.512V14.592C200.403 14.544 200.019 14.496 199.443 14.496C194.979 14.496 192.435 16.992 192.435 22.128V34.368Z" fill="#171717"/>
<path d="M212.257 35.088C205.345 35.088 201.025 30.72 201.025 22.704C201.025 15.6 205.681 10.464 212.017 10.464C218.929 10.464 222.721 15.312 222.721 22.752V23.568H205.153C205.249 28.848 208.321 31.872 212.305 31.872C215.137 31.872 217.825 30.768 218.401 27.216H222.481C222.001 31.296 218.833 35.088 212.257 35.088ZM205.297 20.64H218.305C218.305 16.512 216.049 13.728 212.017 13.728C208.129 13.728 205.585 16.752 205.297 20.64Z" fill="#171717"/>
<path d="M238.467 26.352C231.219 26.352 225.315 20.448 225.315 13.2C225.315 5.904 231.219 0 238.467 0C245.667 0 251.571 5.904 251.571 13.2C251.571 20.448 245.667 26.352 238.467 26.352ZM238.467 23.904C244.419 23.904 249.075 19.2 249.075 13.2C249.075 7.2 244.419 2.496 238.467 2.496C232.515 2.496 227.811 7.2 227.811 13.2C227.811 19.2 232.515 23.904 238.467 23.904ZM235.923 20.208H233.571V6.096H239.571C242.355 6.096 244.131 7.68 244.131 10.032C244.131 11.568 243.315 12.864 242.019 13.44C243.171 13.92 243.843 14.976 243.843 16.512V20.208H241.443V16.992C241.443 15.168 240.771 14.544 238.947 14.544H235.923V20.208ZM235.923 8.352V12.384H239.283C240.867 12.384 241.779 11.664 241.779 10.32C241.779 8.976 240.915 8.352 239.283 8.352H235.923Z" fill="#171717"/>
</svg>
